<svg width="473" height="340" viewBox="0 0 473 340" fill="none" xmlns="http://www.w3.org/2000/svg">
<rect opacity="0.249651" x="319.645" y="233.729" width="27.7148" height="12.9336" rx="2" fill="#798DF6"/>
<rect opacity="0.249651" x="351.517" y="233.729" width="27.7148" height="12.9336" rx="2" fill="#798DF6"/>
<rect opacity="0.249651" x="383.389" y="233.729" width="27.7148" height="12.9336" rx="2" fill="#798DF6"/>
<rect opacity="0.249651" x="335.812" y="250.819" width="27.7148" height="12.9336" rx="2" fill="#798DF6"/>
<rect opacity="0.249651" x="367.684" y="250.819" width="27.7148" height="12.9336" rx="2" fill="#798DF6"/>
<rect opacity="0.249651" x="113.086" y="147.699" width="27.7148" height="12.9336" rx="2" fill="#798DF6"/>
<rect opacity="0.249651" x="144.958" y="147.699" width="27.7148" height="12.9336" rx="2" fill="#798DF6"/>
<rect opacity="0.249651" x="176.83" y="147.699" width="27.7148" height="12.9336" rx="2" fill="#798DF6"/>
<rect opacity="0.249651" x="129.253" y="164.79" width="27.7148" height="12.9336" rx="2" fill="#798DF6"/>
<rect opacity="0.249651" x="161.125" y="164.79" width="27.7148" height="12.9336" rx="2" fill="#798DF6"/>
<path fill-rule="evenodd" clip-rule="evenodd" d="M200.556 249.583L209.268 249.583L187.461 304.023L186.393 304.023L200.556 249.583Z" fill="#4D5068"/>
<path fill-rule="evenodd" clip-rule="evenodd" d="M235.818 249.583L227.107 249.583L248.914 304.023L249.982 304.023L235.818 249.583Z" fill="#4D5068"/>
<path d="M183.204 246.3C183.204 244.51 184.655 243.06 186.444 243.06H245.094C246.884 243.06 248.334 244.51 248.334 246.3V249.365C248.334 250.26 247.609 250.985 246.714 250.985H184.824C183.93 250.985 183.204 250.26 183.204 249.365V246.3Z" fill="#E84951"/>
<path fill-rule="evenodd" clip-rule="evenodd" d="M197.062 232.23C197.062 232.23 199.265 242.956 225.404 252.25C248.334 260.403 256.593 272.678 266.938 277.296C277.283 281.915 297.075 295.404 297.075 295.404L302.009 290.195C302.009 290.195 265.679 258.507 256.593 252.25C250.38 247.971 229.433 229.869 229.433 229.869L197.062 232.23Z" fill="#F2CEE2"/>
<path fill-rule="evenodd" clip-rule="evenodd" d="M197.062 232.23C197.062 232.23 199.265 242.956 225.404 252.25C248.334 260.403 256.593 272.678 266.938 277.296C277.283 281.915 292.083 292.824 292.083 292.824L297.71 285.612C297.71 285.612 264.562 255.229 255.476 248.972C249.263 244.692 229.433 229.869 229.433 229.869L197.062 232.23Z" fill="#7080D5"/>
<path fill-rule="evenodd" clip-rule="evenodd" d="M175.791 226.389C174.242 235.734 179.651 243.61 188.275 244.688C196.899 245.765 252.217 233.186 250.344 236.899C247.039 243.455 240.769 250.912 239.823 258.844C238.425 270.565 231.813 297.893 231.813 297.893H239.823C239.823 297.893 272.334 236.289 267.122 226.389C261.91 216.488 178.219 211.744 175.791 226.389Z" fill="#FFE7F4"/>
<path fill-rule="evenodd" clip-rule="evenodd" d="M175.791 226.389C174.03 235.864 179.651 243.61 188.275 244.688C196.899 245.765 250.845 234.396 248.972 238.109C245.667 244.664 240.769 250.912 239.823 258.844C238.425 270.565 232.003 293.799 232.003 293.799H243.022C243.022 293.799 272.334 236.289 267.122 226.389C265.822 223.918 257.283 218.94 236.5 217.1C233.834 216.863 176.363 214.771 176.311 214.776L175.791 226.389Z" fill="#798DF6"/>
<path fill-rule="evenodd" clip-rule="evenodd" d="M207.547 105.613C211.98 109.942 207.547 127.491 209.222 133.23C210.897 138.97 211.649 143.159 211.548 146.824C211.448 150.49 193.361 141.46 191.3 141.344C189.238 141.228 190.103 113.64 190.103 113.64L200.137 106.548C200.137 106.548 203.114 101.285 207.547 105.613Z" fill="#1D1105"/>
<path fill-rule="evenodd" clip-rule="evenodd" d="M170.795 142.326H179.647L184.915 133.641L195.631 135.325L200.137 142.326C200.137 142.326 210.761 146.226 214.599 148.897C218.437 151.568 223.555 164.26 222.272 164.79C213.188 168.543 194.274 155.03 190.687 155.03C184.549 155.03 170.795 142.326 170.795 142.326Z" fill="url(#paint0_linear)"/>
<path fill-rule="evenodd" clip-rule="evenodd" d="M176.311 214.776C176.311 214.776 170.31 183.508 168.901 172.449C168.582 169.952 154.374 166.976 154.164 164.79C153.056 153.257 161.698 143.924 167.48 142.326C169.668 141.722 172.552 141.219 177.619 143.803C183.125 146.612 190.397 152.01 195.046 152.01C200.556 152.01 204.545 142.945 206.907 143.803C209.327 144.683 212.126 144.967 215.155 147.239C216.995 148.62 223.388 157.52 223.099 161.55C222.898 164.359 215.155 162.913 212.649 163.482C204.636 165.301 210.801 183.631 206.907 191.286C200.792 203.307 208.548 215.936 208.548 215.936L176.311 214.776Z" fill="#FE6073"/>
<path fill-rule="evenodd" clip-rule="evenodd" d="M155.213 165.894C151.474 177.63 148.473 190.636 150.795 193.753C155.087 199.513 196.992 200.664 196.992 200.664L198.471 196.668C198.471 196.668 177.404 190.863 170.796 189.461C164.238 188.07 160.854 187.347 161.125 186.962C161.849 185.934 165.124 180.031 168.656 172.92C168.656 172.92 169.171 172.058 168.656 171.865C168.656 171.865 168.045 171.257 167.341 170.93C166.637 170.603 166.163 170.21 164.654 169.608C161.967 168.537 157.438 166.917 157.438 166.917C156.733 166.575 155.213 165.894 155.213 165.894Z" fill="#FFE7F4"/>
<path fill-rule="evenodd" clip-rule="evenodd" d="M194.423 138.631C197.685 138.303 196.795 137.018 200.43 133.974C204.455 130.602 207.985 119.763 207.194 114.265C206.404 108.767 205.989 105.193 197.106 103.149C188.223 101.105 180.235 105.642 178.339 112.945C176.442 120.248 180.736 126.287 183.49 131.273C186.244 136.259 191.16 138.959 194.423 138.631Z" fill="#FFE7F4"/>
<path fill-rule="evenodd" clip-rule="evenodd" d="M188.208 130.299C189.484 130.299 190.518 129.265 190.518 127.989C190.518 126.714 189.484 125.68 188.208 125.68C186.933 125.68 185.899 126.714 185.899 127.989C185.899 129.265 186.933 130.299 188.208 130.299Z" fill="#FFDDEF"/>
<path fill-rule="evenodd" clip-rule="evenodd" d="M204.423 126.742C203.147 126.742 202.82 128.482 202.82 129.757C202.82 131.033 205.698 126.742 204.423 126.742Z" fill="#FFDDEF"/>
<path fill-rule="evenodd" clip-rule="evenodd" d="M196.635 110.235C191.293 108.485 192.857 108.112 188.588 112.979C184.318 117.846 186.696 138.587 183.85 144.57C181.005 150.553 175.108 149.908 170.796 150.39C166.483 150.873 162.072 150.174 162.072 147.008C162.072 143.842 168.188 141.576 170.796 138.721C174.806 134.33 175.078 117.229 178.084 110.235C181.09 103.242 184.072 101.106 190.981 100.052C197.891 98.9988 208.416 105.125 208.416 105.125C208.416 105.125 204.693 108.607 202.939 109.507C200.724 110.644 198.622 110.886 196.635 110.235Z" fill="#1D1105"/>
<path fill-rule="evenodd" clip-rule="evenodd" d="M242.306 296.847C243.772 298.561 239.615 301.115 241.161 302.089C242.707 303.064 253.239 305.523 255.801 306.921C258.364 308.32 257.371 310.478 255.801 311.497C254.232 312.516 229.822 312.106 227.372 311.101C224.922 310.096 228.857 298.499 230.332 296.716C231.807 294.932 240.84 295.134 242.306 296.847Z" fill="#4D5068"/>
<path fill-rule="evenodd" clip-rule="evenodd" d="M226.587 307.865C226.587 307.865 236.523 309.053 241.75 309.296C246.977 309.539 257.373 309.296 257.373 309.296C257.373 309.296 257.087 310.772 255.804 311.605C254.521 312.438 229.374 311.922 227.372 311.101C225.37 310.279 226.587 307.865 226.587 307.865Z" fill="#A4A9D1"/>
<path fill-rule="evenodd" clip-rule="evenodd" d="M198.638 127.929C198.35 128.233 197.483 128.813 196.9 128.891C196.318 128.968 195.381 128.01 194.965 127.768C194.306 127.386 193.276 127.512 193.265 127.447C193.252 127.369 194.301 127.083 195.121 127.355C195.407 127.449 196.404 128.486 196.964 128.374C197.524 128.262 198.166 127.771 198.403 127.611C198.663 127.435 199.722 127.408 199.827 127.47C199.945 127.539 198.856 127.698 198.638 127.929Z" fill="#E4CAD8"/>
<path opacity="0.212751" fill-rule="evenodd" clip-rule="evenodd" d="M196.246 131.646C195.765 131.608 194.823 131.635 194.376 131.924C193.927 132.215 191.878 131.47 191.512 131.369C191.235 131.293 192.707 132.566 193.494 132.908C193.825 133.052 194.791 133.651 195.694 133.641C196.467 133.632 198.175 132.768 198.444 132.517C198.883 132.107 197.209 131.721 196.246 131.646Z" fill="#E84951"/>
<path fill-rule="evenodd" clip-rule="evenodd" d="M190.222 122.205C191.685 122.452 193.178 121.865 193.342 120.935C193.434 120.413 191.956 119.686 190.64 119.599C189.461 119.522 187.723 120.212 187.723 120.212C187.723 120.212 188.759 121.957 190.222 122.205Z" fill="#E4CAD8"/>
<path fill-rule="evenodd" clip-rule="evenodd" d="M190.158 121.938C191.291 122.138 193.185 121.824 193.342 120.935C193.43 120.436 191.734 120.037 190.476 119.955C189.348 119.88 187.723 120.212 187.723 120.212C187.723 120.212 189.026 121.738 190.158 121.938Z" fill="white"/>
<path opacity="0.751046" fill-rule="evenodd" clip-rule="evenodd" d="M190.984 121.996C191.425 122.027 191.808 121.695 191.839 121.254C191.869 120.813 191.537 120.43 191.096 120.4C190.655 120.369 190.273 120.701 190.242 121.142C190.211 121.583 190.544 121.965 190.984 121.996Z" fill="#1D1105"/>
<path fill-rule="evenodd" clip-rule="evenodd" d="M202.951 122.999C201.677 123.204 199.89 122.514 199.981 121.48C200.031 120.899 201.423 120.112 202.868 120.349C204.978 120.695 205.479 121.48 205.479 121.48C205.479 121.48 204.224 122.795 202.951 122.999Z" fill="#E4CAD8"/>
<path fill-rule="evenodd" clip-rule="evenodd" d="M202.963 122.691C201.785 122.88 199.897 122.436 199.981 121.48C200.026 120.966 201.446 120.454 202.963 120.601C204.479 120.749 205.479 121.48 205.479 121.48C205.479 121.48 204.14 122.502 202.963 122.691Z" fill="white"/>
<path opacity="0.751395" fill-rule="evenodd" clip-rule="evenodd" d="M202.643 122.703C203.083 122.741 203.471 122.415 203.51 121.975C203.548 121.535 203.223 121.147 202.782 121.108C202.342 121.07 201.954 121.395 201.915 121.836C201.877 122.276 202.203 122.664 202.643 122.703Z" fill="#1D1105"/>
<path opacity="0.498884" fill-rule="evenodd" clip-rule="evenodd" d="M194.088 118.939C193.211 118.923 193.404 118.405 191.429 118.083C189.454 117.761 188.831 118.374 187.892 117.983C186.952 117.593 189.74 116.954 191.681 117.451C193.622 117.947 194.964 118.954 194.088 118.939Z" fill="#1D1105"/>
<path opacity="0.498884" fill-rule="evenodd" clip-rule="evenodd" d="M199.773 118.999C200.648 119.06 200.24 118.791 202.236 118.643C204.232 118.494 204.86 119.626 205.83 119.815C206.8 120.004 204.464 117.885 202.382 117.892C200.3 117.898 198.899 118.938 199.773 118.999Z" fill="#1D1105"/>
<path fill-rule="evenodd" clip-rule="evenodd" d="M301.602 286.444C303.838 286.147 303.716 291.025 305.375 290.259C307.034 289.493 314.832 281.999 317.401 280.612C319.969 279.225 321.238 281.233 321.238 283.104C321.238 284.976 307.599 305.224 305.422 306.731C303.245 308.238 295.663 298.622 294.97 296.414C294.278 294.206 299.367 286.74 301.602 286.444Z" fill="#4D5068"/>
<path fill-rule="evenodd" clip-rule="evenodd" d="M302.282 305.627C302.282 305.627 308.689 297.942 311.739 293.69C314.79 289.439 320.248 280.588 320.248 280.588C320.248 280.588 321.33 281.631 321.33 283.161C321.33 284.69 307.202 305.499 305.422 306.731C303.643 307.963 302.282 305.627 302.282 305.627Z" fill="#A4A9D1"/>
<path fill-rule="evenodd" clip-rule="evenodd" d="M190.583 124.208C192.874 124.368 194.86 122.641 195.021 120.351C195.181 118.06 195.218 117.534 191.07 117.244C186.923 116.954 186.887 117.48 186.726 119.771C186.566 122.061 188.293 124.048 190.583 124.208Z" fill="white" stroke="#4D5068"/>
<path fill-rule="evenodd" clip-rule="evenodd" d="M202.622 125.205C204.916 125.285 206.841 123.49 206.921 121.195C207.001 118.901 207.02 118.374 202.865 118.229C198.71 118.083 198.692 118.611 198.612 120.905C198.532 123.2 200.327 125.125 202.622 125.205Z" fill="white" stroke="#4D5068"/>
<path fill-rule="evenodd" clip-rule="evenodd" d="M188.208 120.847C188.208 120.847 189.377 120.05 190.518 120.093C191.658 120.137 192.846 120.949 192.846 120.949V120.688C192.846 120.688 191.628 119.717 190.527 119.683C189.426 119.649 188.208 120.546 188.208 120.546V120.847Z" fill="#1D1105"/>
<path fill-rule="evenodd" clip-rule="evenodd" d="M194.942 120.424C194.942 120.424 195.903 120.084 196.821 120.132C197.74 120.181 198.632 120.617 198.632 120.617L198.572 121.117C198.572 121.117 197.712 120.682 196.78 120.633C195.848 120.585 194.882 120.923 194.882 120.923L194.942 120.424Z" fill="#4D5068"/>
<path fill-rule="evenodd" clip-rule="evenodd" d="M185.08 139.117C185.08 139.117 185.289 142.23 187.266 145.58C189.243 148.931 194.524 154.612 194.524 154.612C194.524 154.612 195.168 165.198 194.175 169.222C193.366 172.504 191.528 176.22 190.274 178.59C186.085 186.505 178.519 190.808 178.519 190.808C178.519 190.808 164.622 200.736 163.42 201.983C162.219 203.229 158.271 207.123 158.271 208.705C158.271 210.287 158.172 212.247 161.778 212.893C163.42 213.188 167.739 213.765 172.243 214.022C177.51 214.323 183.077 213.996 185.244 213.68C189.264 213.094 192.785 208.632 192.843 208.444C192.901 208.257 192.845 208.071 192.454 208.071C192.063 208.071 192.12 208.132 191.962 208.358C191.804 208.583 188.588 212.572 185.08 213.188C183.334 213.494 177.709 213.794 172.385 213.532C167.013 213.268 162.111 212.631 161.213 212.287C158.795 211.361 158.795 210.451 158.795 209.138C158.795 207.826 161.036 205.169 163.629 202.555C166.222 199.941 178.728 191.296 178.728 191.296C178.728 191.296 186.684 186.627 190.687 178.888C191.957 176.433 193.863 172.829 194.689 169.222C195.599 165.248 194.922 154.612 194.922 154.612C194.922 154.612 199.155 146.717 200.702 142.353C202.249 137.989 204.327 128.833 204.327 128.833L203.643 130.129C203.643 130.129 201.679 138.401 200.183 142.353C198.688 146.305 195.215 154.105 194.689 154.166C194.164 154.227 189.599 148.478 187.594 145.169C185.588 141.86 185.135 138.403 185.135 138.403L185.08 139.117Z" fill="white"/>
<path fill-rule="evenodd" clip-rule="evenodd" d="M154.405 212.873L169.77 212.873L131.309 308.887L129.425 308.887L154.405 212.873Z" fill="#4D5068"/>
<path fill-rule="evenodd" clip-rule="evenodd" d="M360.031 213.507L344.782 211.635L371.254 311.62L373.124 311.85L360.031 213.507Z" fill="#4D5068"/>
<path fill-rule="evenodd" clip-rule="evenodd" d="M131.499 208.358L396.147 201.714L396.083 208.358L377.67 221.645H113.086V215.001L131.499 208.358Z" fill="#D8D8D8"/>
<path fill-rule="evenodd" clip-rule="evenodd" d="M131.499 201.714H396.083L377.67 215.001H113.086L131.499 201.714Z" fill="#F0F0F0"/>
<path fill-rule="evenodd" clip-rule="evenodd" d="M163.989 207.604C163.519 207.614 163.144 207.998 163.144 208.468V208.705L195.045 206.946L163.989 207.604Z" fill="#E1DFDF"/>
<path fill-rule="evenodd" clip-rule="evenodd" d="M163.144 208.705V209.079C163.144 209.556 163.53 209.943 164.008 209.943H245.153C245.937 209.943 246.622 209.416 246.823 208.659L258.407 165.115C258.699 164.018 257.872 162.942 256.737 162.942H204.824C203.994 162.942 203.281 163.533 203.126 164.348L195.045 206.946L163.144 208.705Z" fill="#C8C6C6"/>
<path fill-rule="evenodd" clip-rule="evenodd" d="M203.122 164.343C203.279 163.53 203.991 162.942 204.819 162.942H256.827C257.934 162.942 258.755 163.968 258.514 165.048L248.766 208.609C248.591 209.391 247.902 209.95 247.101 209.96L196.301 210.585C195.206 210.598 194.375 209.604 194.583 208.529L203.122 164.343Z" fill="url(#paint1_radial)"/>
<path fill-rule="evenodd" clip-rule="evenodd" d="M225.997 191.129C228.053 191.418 229.995 189.704 230.333 187.3C230.67 184.897 229.277 182.714 227.22 182.425C225.163 182.136 223.222 183.85 222.884 186.253C222.546 188.657 223.94 190.84 225.997 191.129Z" fill="#EDEDED"/>
<path fill-rule="evenodd" clip-rule="evenodd" d="M289.63 204.805C292.682 204.805 295.156 202.331 295.156 199.279C295.156 196.227 292.682 193.753 289.63 193.753C286.579 193.753 284.105 196.227 284.105 199.279C284.105 202.331 286.579 204.805 289.63 204.805Z" stroke="#5464B7" stroke-width="2.52"/>
<rect x="289.019" y="189.385" width="16.2963" height="19.7884" rx="2.52" fill="#798DF6"/>
<path fill-rule="evenodd" clip-rule="evenodd" d="M289.019 200.443V198.115C289.019 198.115 293.093 198.115 297.167 198.115C301.241 198.115 305.315 198.115 305.315 198.115V200.443C305.315 200.443 301.241 200.443 297.167 200.443C293.093 200.443 289.019 200.443 289.019 200.443Z" fill="url(#paint2_linear)"/>
<path fill-rule="evenodd" clip-rule="evenodd" d="M410.868 272.413C410.559 270.855 411.752 269.404 413.34 269.404H446.07C447.656 269.404 448.848 270.851 448.543 272.408L441.727 307.236C441.496 308.418 440.459 309.272 439.254 309.272H420.239C419.036 309.272 418 308.421 417.767 307.241L410.868 272.413Z" fill="#4D5068"/>
<path fill-rule="evenodd" clip-rule="evenodd" d="M413.126 269.404H446.693C447.955 269.404 448.901 270.557 448.655 271.795L444.114 294.581L413.126 269.404Z" fill="#2F3143"/>
<path fill-rule="evenodd" clip-rule="evenodd" d="M431.724 269.404C431.724 269.404 431.74 261.377 433.318 257.622C434.895 253.866 437.25 252.715 439.324 251.308C443.173 248.696 445.825 246.862 449.131 245.208C454.803 242.369 458.765 231.419 458.765 231.419C458.765 231.419 443.9 230.052 438.406 236.17C435.71 239.173 437.232 242.36 436.091 246.796C435.682 248.385 431.724 252.37 431.724 252.37C431.724 252.37 431.295 245.208 433.318 239.222C435.34 233.237 437.758 232.299 437.427 225.088C437.096 217.878 433.318 206.56 433.318 206.56C433.318 206.56 423.577 207.926 422.397 217.758C421.218 227.591 426.529 232.801 427.56 239.222C428.59 245.643 425.975 255.378 425.975 255.378C425.975 255.378 421.128 253.652 420.068 252.37C417.824 249.656 418.304 246.125 416.033 243.54C411.018 237.831 396.801 236.17 396.801 236.17C396.801 236.17 395.931 247.118 402.671 252.37C409.41 257.622 408.3 255.472 418.424 257.622C428.548 259.771 428.548 269.404 428.548 269.404H431.724Z" fill="#E84951"/>
<path d="M439.449 246.549C439.449 246.549 441.713 242.529 445.757 238.751C449.801 234.973 456.372 232.829 456.372 232.829" stroke="#BF363D" stroke-width="0.63"/>
<path d="M430.435 235.316C430.435 235.316 431.418 227.286 431.418 223.054C431.418 218.822 430.435 210.793 430.435 210.793" stroke="#BF363D" stroke-width="0.63"/>
<path d="M416.318 253.579C416.318 253.579 410.982 246.799 407.957 244.286C404.931 241.773 399.595 239.689 399.595 239.689" stroke="#BF363D" stroke-width="0.63"/>
<path fill-rule="evenodd" clip-rule="evenodd" d="M70.7205 274.912C76.1073 271.966 81.2967 263.762 81.2967 263.762C81.2967 263.762 72.9893 264.222 69.0461 268.527C65.1029 272.831 61.5629 280.838 61.5629 280.838C61.5629 280.838 62.8035 267.232 67.4194 263.762C72.0353 260.292 81.2967 246.209 81.2967 246.209C81.2967 246.209 66.5104 251.274 62.5566 261.668C58.6027 272.063 58.4977 280.838 58.4977 280.838C58.4977 280.838 54.9933 263.903 53.5966 258.122C52.1999 252.341 45.0197 243.569 45.0197 243.569C45.0197 243.569 39.6017 254.731 47.2847 263.762C54.9676 272.793 55.8972 281.697 55.8972 281.697H64.3479C64.3479 281.697 65.3337 277.859 70.7205 274.912Z" fill="#798DF6"/>
<path d="M45.4216 247.732C45.4216 247.732 47.3226 252.958 49.0979 258.188C50.8732 263.418 52.403 266.59 52.403 266.59" stroke="#6373C8"/>
<path d="M63.8545 264.67C63.8545 264.67 67.3048 259.224 69.4522 256.833C71.5995 254.443 76.7036 250.366 76.7036 250.366" stroke="#6373C8"/>
<path d="M65.7798 276.318C65.7798 276.318 69.3037 271.892 71.5416 270.058C73.7794 268.224 78.5798 265.826 78.5798 265.826" stroke="#6373C8"/>
<path fill-rule="evenodd" clip-rule="evenodd" d="M42.2245 284.921C41.755 283.309 42.9645 281.697 44.644 281.697H76.7977C78.4739 281.697 79.6829 283.303 79.2195 284.914L72.8669 306.995C72.5563 308.075 71.5686 308.819 70.4451 308.819H51.0734C49.9529 308.819 48.967 308.079 48.6538 307.003L42.2245 284.921Z" fill="#4D5068"/>
<rect x="40.5276" y="281.697" width="40.3754" height="5.54297" rx="1" fill="#4D5068"/>
<path fill-rule="evenodd" clip-rule="evenodd" d="M270.22 76.5647C283.996 76.5647 295.163 65.3972 295.163 51.6213C295.163 37.8455 283.996 26.678 270.22 26.678C256.444 26.678 245.276 37.8455 245.276 51.6213C245.276 65.3972 256.444 76.5647 270.22 76.5647Z" fill="#798DF6" fill-opacity="0.258086" stroke="#798DF6" stroke-width="2"/>
<rect x="269.345" y="30.9954" width="1.7496" height="21.5854" rx="0.874802" fill="#798DF6"/>
<rect x="259.365" y="63.4268" width="1.74962" height="16.733" rx="0.874812" transform="rotate(-134 259.365 63.4268)" fill="#798DF6"/>
<rect x="67.8181" y="76.5647" width="45.2676" height="56.3535" fill="#E84951" fill-opacity="0.251584"/>
<rect x="72.5481" y="82.4531" width="35.8077" height="44.5769" fill="#E84951" fill-opacity="0.246531"/>
<path fill-rule="evenodd" clip-rule="evenodd" d="M200.426 121.536C200.426 121.536 201.672 120.865 202.802 121.028C203.932 121.19 205.029 122.122 205.029 122.122L205.056 121.863C205.056 121.863 203.946 120.769 202.855 120.62C201.763 120.472 200.458 121.236 200.458 121.236L200.426 121.536Z" fill="#1D1105"/>
<path fill-rule="evenodd" clip-rule="evenodd" d="M192.286 131.801C192.286 131.801 194.691 132.852 195.618 132.852C196.546 132.852 198.444 132.282 198.444 132.282C198.444 132.282 196.637 132.913 195.618 132.913C194.599 132.913 192.286 131.801 192.286 131.801Z" fill="#E0AFB9"/>
<defs>
<linearGradient id="paint0_linear" x1="170.795" y1="133.641" x2="170.795" y2="165.449" gradientUnits="userSpaceOnUse">
<stop stop-color="#D4BDC9"/>
<stop offset="1" stop-color="#FFE7F4"/>
</linearGradient>
<radialGradient id="paint1_radial" cx="0" cy="0" r="1" gradientUnits="userSpaceOnUse" gradientTransform="translate(227.315 186.765) rotate(90) scale(42.2423 56.8003)">
<stop stop-color="white"/>
<stop offset="1" stop-color="#DFDFDF"/>
</radialGradient>
<linearGradient id="paint2_linear" x1="289.019" y1="200.443" x2="305.315" y2="200.443" gradientUnits="userSpaceOnUse">
<stop stop-color="white" stop-opacity="0.01"/>
<stop offset="1" stop-color="#8699FF"/>
</linearGradient>
</defs>
</svg>
