<svg width="47" height="46" viewBox="0 0 47 46" fill="none" xmlns="http://www.w3.org/2000/svg">
<g opacity="0.502767">
<path fill-rule="evenodd" clip-rule="evenodd" d="M23.5801 46C36.2826 46 46.5801 35.7025 46.5801 23C46.5801 10.2975 36.2826 0 23.5801 0C10.8775 0 0.580078 10.2975 0.580078 23C0.580078 35.7025 10.8775 46 23.5801 46Z" fill="#E0E0E0"/>
<path d="M23.5801 14.5C19.0801 14.5 15.3801 18.2 15.3801 22.7C15.3801 26.3 17.7801 29.4 20.9801 30.5C21.3801 30.6 21.5801 30.3 21.5801 30.1C21.5801 29.9 21.5801 29.3 21.5801 28.6C19.2801 29.1 18.7801 27.6 18.7801 27.6C18.3801 26.7 17.8801 26.4 17.8801 26.4C17.1801 25.9 17.9801 25.9 17.9801 25.9C18.7801 26 19.2801 26.7 19.2801 26.7C19.9801 28 21.1801 27.6 21.6801 27.4C21.7801 26.9 21.9801 26.5 22.1801 26.3C20.3801 26.1 18.4801 25.4 18.4801 22.2C18.4801 21.3 18.7801 20.6 19.2801 20C19.1801 19.8 18.8801 19 19.3801 17.8C19.3801 17.8 20.0801 17.6 21.6801 18.6C22.1801 18.6 22.8801 18.5 23.5801 18.5C24.2801 18.5 24.9801 18.6 25.6801 18.8C27.2801 17.7 27.9801 18 27.9801 18C28.3801 19.1 28.1801 20 28.0801 20.2C28.5801 20.8 28.8801 21.5 28.8801 22.4C28.8801 25.6 26.9801 26.2 25.1801 26.4C25.4801 26.7 25.7801 27.2 25.7801 27.9C25.7801 29 25.7801 29.9 25.7801 30.2C25.7801 30.4 25.8801 30.7 26.3801 30.6C29.6801 29.5 31.9801 26.4 31.9801 22.8C31.7801 18.2 28.0801 14.5 23.5801 14.5Z" fill="black"/>
<path d="M18.4801 26.3C18.4801 26.3 18.3801 26.4 18.3801 26.3C18.2801 26.3 18.2801 26.2 18.2801 26.2C18.2801 26.2 18.3801 26.1 18.3801 26.2C18.4801 26.2 18.4801 26.2 18.4801 26.3Z" fill="black"/>
<path d="M18.78 26.6C18.78 26.6 18.68 26.6 18.58 26.6C18.58 26.6 18.58 26.5 18.58 26.4C18.58 26.4 18.68 26.4 18.78 26.4C18.88 26.5 18.88 26.6 18.78 26.6Z" fill="black"/>
<path d="M19.18 27.1C19.08 27.1 19.08 27.1 18.98 27C18.88 26.9 18.88 26.8 18.98 26.8C19.08 26.8 19.08 26.8 19.18 26.9C19.18 27 19.18 27.1 19.18 27.1Z" fill="black"/>
<path d="M19.5801 27.6C19.5801 27.6 19.4801 27.6 19.3801 27.6C19.2801 27.5 19.2801 27.4 19.3801 27.4C19.3801 27.4 19.4801 27.4 19.5801 27.4C19.5801 27.4 19.6801 27.5 19.5801 27.6Z" fill="black"/>
<path d="M20.18 27.8C20.18 27.9 20.08 27.9 19.98 27.9C19.88 27.9 19.78 27.8 19.88 27.7C19.88 27.6 19.98 27.6 20.08 27.6C20.18 27.7 20.18 27.8 20.18 27.8Z" fill="black"/>
<path d="M20.8802 27.8999C20.8802 27.9999 20.7802 27.9999 20.6802 27.9999C20.5802 27.9999 20.4802 27.8999 20.4802 27.8999C20.4802 27.7999 20.5802 27.7999 20.6802 27.7999C20.7802 27.7999 20.8802 27.7999 20.8802 27.8999Z" fill="black"/>
<path d="M21.48 27.8001C21.48 27.9001 21.38 27.9001 21.28 28.0001C21.18 28.0001 21.08 28.0001 21.08 27.9001C21.08 27.8001 21.18 27.8001 21.28 27.7001C21.38 27.7001 21.48 27.7001 21.48 27.8001Z" fill="black"/>
</g>
</svg>
