<svg width="47" height="46" viewBox="0 0 47 46" fill="none" xmlns="http://www.w3.org/2000/svg">
<g opacity="0.502767">
<path fill-rule="evenodd" clip-rule="evenodd" d="M23.5801 46C36.2826 46 46.5801 35.7025 46.5801 23C46.5801 10.2975 36.2826 0 23.5801 0C10.8775 0 0.580078 10.2975 0.580078 23C0.580078 35.7025 10.8775 46 23.5801 46Z" fill="#E0E0E0"/>
<path fill-rule="evenodd" clip-rule="evenodd" d="M20.2801 15H23.5801C25.7801 15 25.9801 15 26.7801 15.1C27.5801 15.2 28.1801 15.3 28.6801 15.5C29.1801 15.7 29.6801 16 30.0801 16.4C30.4801 16.8 30.7801 17.3 30.9801 17.8C31.1801 18.3 31.3801 18.8 31.3801 19.7V23V26.3C31.2801 27.1 31.1801 27.7 30.9801 28.2C30.7801 28.7 30.4801 29.2 30.0801 29.6C29.6801 30 29.1801 30.3 28.6801 30.5C28.1801 30.7 27.6801 30.9 26.7801 30.9H23.4801H20.1801C19.3801 30.8 18.7801 30.7 18.2801 30.5C17.7801 30.3 17.2801 30 16.8801 29.6C16.4801 29.2 16.1801 28.7 15.9801 28.2C15.7801 27.7 15.5801 27.2 15.5801 26.3V23V19.7C15.6801 18.9 15.7801 18.3 15.9801 17.8C16.1801 17.2 16.4801 16.8 16.9801 16.3C17.3801 15.9 17.8801 15.6 18.3801 15.4C18.8801 15.2 19.3801 15 20.2801 15ZM26.7801 16.4H23.5801H20.3801C19.5801 16.5 19.1801 16.6 18.8801 16.7C18.4801 16.8 18.2801 17 17.9801 17.3C17.6801 17.6 17.4801 17.8 17.3801 18.2C17.3646 18.2464 17.3467 18.2952 17.3276 18.3475C17.223 18.6333 17.0801 19.0238 17.0801 19.7V22.9V26.1C17.1801 26.9 17.2801 27.3 17.3801 27.6C17.4801 28 17.6801 28.2 17.9801 28.5C18.2801 28.8 18.4801 29 18.8801 29.1C18.9265 29.1155 18.9753 29.1333 19.0276 29.1525C19.3134 29.2571 19.7038 29.4 20.3801 29.4H23.5801H26.7801C27.5801 29.3 27.9801 29.2 28.2801 29.1C28.6801 29 28.8801 28.8 29.1801 28.5C29.4801 28.2 29.6801 28 29.7801 27.6C29.7955 27.5536 29.8134 27.5048 29.8326 27.4525C29.9372 27.1667 30.0801 26.7762 30.0801 26.1V22.9V19.7C29.9801 18.9 29.8801 18.5 29.7801 18.2C29.6801 17.8 29.4801 17.6 29.1801 17.3C28.8801 17 28.6801 16.8 28.2801 16.7C28.2337 16.6845 28.1849 16.6667 28.1326 16.6475C27.8467 16.5429 27.4563 16.4 26.7801 16.4Z" fill="black"/>
<path fill-rule="evenodd" clip-rule="evenodd" d="M19.48 22.9999C19.48 20.6999 21.28 18.8999 23.58 18.8999C25.88 18.8999 27.68 20.6999 27.68 22.9999C27.68 25.2999 25.88 27.0999 23.58 27.0999C21.28 27.0999 19.48 25.2999 19.48 22.9999ZM20.88 22.9999C20.88 24.4999 22.08 25.6999 23.58 25.6999C25.08 25.6999 26.28 24.4999 26.28 22.9999C26.28 21.4999 25.08 20.2999 23.58 20.2999C22.08 20.2999 20.88 21.4999 20.88 22.9999Z" fill="black"/>
<path d="M28.78 18.7C28.78 19.2 28.38 19.7 27.78 19.7C27.18 19.7 26.78 19.3 26.78 18.7C26.78 18.1 27.18 17.7 27.78 17.7C28.38 17.7 28.78 18.2 28.78 18.7Z" fill="black"/>
</g>
</svg>
