<svg width="419" height="279" viewBox="0 0 419 279" fill="none" xmlns="http://www.w3.org/2000/svg">
<path fill-rule="evenodd" clip-rule="evenodd" d="M139.429 278.474C216.434 278.474 278.859 216.135 278.859 139.237C278.859 62.3385 216.434 0 139.429 0C62.4246 0 0 62.3385 0 139.237C0 216.135 62.4246 278.474 139.429 278.474Z" fill="url(#paint0_linear)"/>
<path fill-rule="evenodd" clip-rule="evenodd" d="M278.859 278.474C355.863 278.474 418.288 216.135 418.288 139.237C418.288 62.3385 355.863 0 278.859 0C201.854 0 139.429 62.3385 139.429 139.237C139.429 216.135 201.854 278.474 278.859 278.474Z" fill="url(#paint1_linear)"/>
<defs>
<linearGradient id="paint0_linear" x1="278.859" y1="278.474" x2="278.859" y2="0" gradientUnits="userSpaceOnUse">
<stop stop-color="#483CCC" stop-opacity="0.01"/>
<stop offset="1" stop-color="#E84951"/>
</linearGradient>
<linearGradient id="paint1_linear" x1="139.429" y1="0" x2="139.429" y2="278.474" gradientUnits="userSpaceOnUse">
<stop stop-color="#483CCC" stop-opacity="0.01"/>
<stop offset="1" stop-color="#798DF6"/>
</linearGradient>
</defs>
</svg>
