<svg width="47" height="46" viewBox="0 0 47 46" fill="none" xmlns="http://www.w3.org/2000/svg">
<g opacity="0.502767">
<path fill-rule="evenodd" clip-rule="evenodd" d="M23.5801 46C36.2826 46 46.5801 35.7025 46.5801 23C46.5801 10.2975 36.2826 0 23.5801 0C10.8775 0 0.580078 10.2975 0.580078 23C0.580078 35.7025 10.8775 46 23.5801 46Z" fill="#E0E0E0"/>
<path fill-rule="evenodd" clip-rule="evenodd" d="M20.9601 28.9C21.5034 28.7649 22.0159 28.5273 22.4701 28.2C22.91 27.876 23.2609 27.446 23.4901 26.95C23.7613 26.4003 23.8951 25.7929 23.8801 25.18C23.9075 24.4137 23.7017 23.657 23.2901 23.01C22.8532 22.3863 22.2077 21.9393 21.4701 21.75C22.0121 21.5041 22.4783 21.1173 22.8201 20.63C23.14 20.1221 23.3003 19.53 23.2801 18.93C23.2958 18.3878 23.1935 17.8487 22.9801 17.35C22.7841 16.9483 22.4879 16.6039 22.1201 16.35C21.7182 16.0772 21.2661 15.8868 20.7901 15.79C20.2217 15.6682 19.6413 15.6112 19.0601 15.62H12.8201V29.12H19.2301C19.814 29.1255 20.396 29.0515 20.9601 28.9ZM26.8701 16.5H32.2301V17.85H26.8701V16.5ZM28.0601 26.78C27.6142 26.2498 27.3824 25.5722 27.4101 24.88V24.84H34.3101C34.3647 24.1084 34.3039 23.3728 34.1301 22.66C33.9711 21.9922 33.686 21.3609 33.2901 20.8C32.8967 20.2571 32.3834 19.8123 31.7901 19.5C31.1263 19.1968 30.3987 19.0595 29.6701 19.1C28.9826 19.0904 28.3009 19.2267 27.6701 19.5C27.0821 19.7588 26.5543 20.1367 26.1201 20.61C25.6803 21.0842 25.3402 21.6419 25.1201 22.25C24.6552 23.5875 24.6552 25.0426 25.1201 26.38C25.34 26.9853 25.6801 27.5398 26.1201 28.01C26.5591 28.4506 27.0877 28.7916 27.6701 29.01C28.3081 29.256 28.9863 29.3814 29.6701 29.38C30.6512 29.405 31.6181 29.1407 32.4501 28.62C33.2988 28.003 33.9039 27.1076 34.1601 26.09H31.8501C31.7128 26.4487 31.4639 26.7537 31.1401 26.96C30.7355 27.2402 30.252 27.3838 29.7601 27.37C29.1369 27.4112 28.5237 27.1984 28.0601 26.78ZM29.5801 21.1C30.1343 21.0568 30.6805 21.2534 31.0801 21.64C31.4587 22.0776 31.6897 22.6235 31.7401 23.2H27.4501C27.4693 22.98 27.5095 22.7624 27.5701 22.55C27.6392 22.2989 27.7583 22.0642 27.9201 21.86C28.0987 21.6347 28.3238 21.4505 28.5801 21.32C28.8922 21.1712 29.2343 21.0959 29.5801 21.1ZM20.3001 18.69C20.1942 18.4964 20.0389 18.3342 19.8501 18.22C19.6532 18.1016 19.4363 18.0202 19.2101 17.98C18.9582 17.9458 18.7043 17.9291 18.4501 17.93H15.7401V21.09H18.7401C19.1977 21.1137 19.6495 20.9796 20.0201 20.71C20.354 20.4012 20.521 19.952 20.4701 19.5C20.4798 19.2202 20.4214 18.9423 20.3001 18.69ZM18.9001 23.05C19.4432 23.0227 19.9793 23.1815 20.4201 23.5C20.8638 23.8973 21.078 24.491 20.9901 25.08C21.0064 25.3829 20.948 25.6851 20.8201 25.96C20.7132 26.178 20.5512 26.3642 20.3501 26.5C20.1365 26.6032 19.9062 26.6675 19.6701 26.69C19.4011 26.7513 19.1259 26.7815 18.8501 26.78H15.7401V23.05H18.9001Z" fill="black"/>
</g>
</svg>
