<svg width="119" height="66" viewBox="0 0 119 66" fill="none" xmlns="http://www.w3.org/2000/svg">
<path opacity="0.502999" fill-rule="evenodd" clip-rule="evenodd" d="M5.5 11.5C8.53757 11.5 11 9.03757 11 6C11 2.96243 8.53757 0.5 5.5 0.5C2.46243 0.5 0 2.96243 0 6C0 9.03757 2.46243 11.5 5.5 11.5Z" fill="#798DF6"/>
<path opacity="0.502999" fill-rule="evenodd" clip-rule="evenodd" d="M32.5 11.5C35.5376 11.5 38 9.03757 38 6C38 2.96243 35.5376 0.5 32.5 0.5C29.4624 0.5 27 2.96243 27 6C27 9.03757 29.4624 11.5 32.5 11.5Z" fill="#798DF6"/>
<path opacity="0.502999" fill-rule="evenodd" clip-rule="evenodd" d="M59.5 11.5C62.5376 11.5 65 9.03757 65 6C65 2.96243 62.5376 0.5 59.5 0.5C56.4624 0.5 54 2.96243 54 6C54 9.03757 56.4624 11.5 59.5 11.5Z" fill="#798DF6"/>
<path opacity="0.502999" fill-rule="evenodd" clip-rule="evenodd" d="M86.5 11.5C89.5376 11.5 92 9.03757 92 6C92 2.96243 89.5376 0.5 86.5 0.5C83.4624 0.5 81 2.96243 81 6C81 9.03757 83.4624 11.5 86.5 11.5Z" fill="#798DF6"/>
<path opacity="0.502999" fill-rule="evenodd" clip-rule="evenodd" d="M113.5 11.5C116.538 11.5 119 9.03757 119 6C119 2.96243 116.538 0.5 113.5 0.5C110.462 0.5 108 2.96243 108 6C108 9.03757 110.462 11.5 113.5 11.5Z" fill="#798DF6"/>
<path opacity="0.502999" fill-rule="evenodd" clip-rule="evenodd" d="M5.5 38.5C8.53757 38.5 11 36.0376 11 33C11 29.9624 8.53757 27.5 5.5 27.5C2.46243 27.5 0 29.9624 0 33C0 36.0376 2.46243 38.5 5.5 38.5Z" fill="#798DF6"/>
<path opacity="0.502999" fill-rule="evenodd" clip-rule="evenodd" d="M32.5 38.5C35.5376 38.5 38 36.0376 38 33C38 29.9624 35.5376 27.5 32.5 27.5C29.4624 27.5 27 29.9624 27 33C27 36.0376 29.4624 38.5 32.5 38.5Z" fill="#798DF6"/>
<path opacity="0.502999" fill-rule="evenodd" clip-rule="evenodd" d="M59.5 38.5C62.5376 38.5 65 36.0376 65 33C65 29.9624 62.5376 27.5 59.5 27.5C56.4624 27.5 54 29.9624 54 33C54 36.0376 56.4624 38.5 59.5 38.5Z" fill="#798DF6"/>
<path opacity="0.502999" fill-rule="evenodd" clip-rule="evenodd" d="M86.5 38.5C89.5376 38.5 92 36.0376 92 33C92 29.9624 89.5376 27.5 86.5 27.5C83.4624 27.5 81 29.9624 81 33C81 36.0376 83.4624 38.5 86.5 38.5Z" fill="#798DF6"/>
<path opacity="0.502999" fill-rule="evenodd" clip-rule="evenodd" d="M113.5 38.5C116.538 38.5 119 36.0376 119 33C119 29.9624 116.538 27.5 113.5 27.5C110.462 27.5 108 29.9624 108 33C108 36.0376 110.462 38.5 113.5 38.5Z" fill="#798DF6"/>
<path opacity="0.502999" fill-rule="evenodd" clip-rule="evenodd" d="M5.5 65.5C8.53757 65.5 11 63.0376 11 60C11 56.9624 8.53757 54.5 5.5 54.5C2.46243 54.5 0 56.9624 0 60C0 63.0376 2.46243 65.5 5.5 65.5Z" fill="#798DF6"/>
<path opacity="0.502999" fill-rule="evenodd" clip-rule="evenodd" d="M32.5 65.5C35.5376 65.5 38 63.0376 38 60C38 56.9624 35.5376 54.5 32.5 54.5C29.4624 54.5 27 56.9624 27 60C27 63.0376 29.4624 65.5 32.5 65.5Z" fill="#798DF6"/>
<path opacity="0.502999" fill-rule="evenodd" clip-rule="evenodd" d="M59.5 65.5C62.5376 65.5 65 63.0376 65 60C65 56.9624 62.5376 54.5 59.5 54.5C56.4624 54.5 54 56.9624 54 60C54 63.0376 56.4624 65.5 59.5 65.5Z" fill="#798DF6"/>
<path opacity="0.502999" fill-rule="evenodd" clip-rule="evenodd" d="M86.5 65.5C89.5376 65.5 92 63.0376 92 60C92 56.9624 89.5376 54.5 86.5 54.5C83.4624 54.5 81 56.9624 81 60C81 63.0376 83.4624 65.5 86.5 65.5Z" fill="#798DF6"/>
<path opacity="0.502999" fill-rule="evenodd" clip-rule="evenodd" d="M113.5 65.5C116.538 65.5 119 63.0376 119 60C119 56.9624 116.538 54.5 113.5 54.5C110.462 54.5 108 56.9624 108 60C108 63.0376 110.462 65.5 113.5 65.5Z" fill="#798DF6"/>
</svg>
