<svg width="78" height="78" viewBox="0 0 78 78" fill="none" xmlns="http://www.w3.org/2000/svg">
<path fill-rule="evenodd" clip-rule="evenodd" d="M33.2154 1.01929C30.3457 -0.637567 26.6761 0.345685 25.0193 3.21544L1.01929 44.7847C-0.637568 47.6544 0.345685 51.324 3.21544 52.9808L44.7847 76.9808C47.6544 78.6377 51.324 77.6544 52.9808 74.7847L76.9808 33.2154C78.6377 30.3457 77.6544 26.6761 74.7847 25.0193L33.2154 1.01929ZM32.8135 7.71544C31.3786 6.88701 29.5439 7.37864 28.7154 8.81352L7.71544 45.1866C6.88701 46.6215 7.37864 48.4562 8.81352 49.2847L45.1866 70.2847C46.6215 71.1131 48.4562 70.6215 49.2847 69.1866L70.2847 32.8135C71.1131 31.3786 70.6215 29.5439 69.1866 28.7154L32.8135 7.71544Z" fill="#798DF6"/>
</svg>
